# xmcd CD database file
#
# Track frame offsets:
#	150
#	27694
#	48348
#	73048
#	96764
#	125659
#	147923
#	173468
#	197825
#	224311
#	245660
#	266324
#
# Disc length: 3811 seconds
#
# Revision: 0
# Processed by: cddbd v1.5.2PL0 Copyright (c) Steve Scherf et al.
# Submitted via: CDex 1.51
#
DISCID=b30ee10c
DTITLE=Alan Barnes - Jumpin'
DYEAR=1997
DGENRE=Jazz
TTITLE0=Jumpin' The Blues
TTITLE1=Funk In A DeepFreeze
TTITLE2=Don't You Know I Care?
TTITLE3=High On You
TTITLE4=On A Misty Night
TTITLE5=Giant Steps
TTITLE6=Five Spot After Dark
TTITLE7=Out Of This World
TTITLE8=Some Other Time
TTITLE9=Minor Mishap
TTITLE10=I Remember Clifford
TTITLE11=The Jeep Is Jumpin'
EXTD=YEAR: 1997
EXTT0=
EXTT1=
EXTT2=
EXTT3=
EXTT4=
EXTT5=
EXTT6=
EXTT7=
EXTT8=
EXTT9=
EXTT10=
EXTT11=
PLAYORDER=
